<svg xmlns="http://www.w3.org/2000/svg" width="23.654" height="23.654" viewBox="0 0 23.654 23.654">
  <path id="solid_at" data-name="solid at" d="M19.827,8a11.827,11.827,0,1,0,6.458,21.736,1.146,1.146,0,0,0,.265-1.687l-.485-.593a1.141,1.141,0,0,0-1.5-.245,8.775,8.775,0,1,1-4.741-16.159c4.776,0,8.775,2.748,8.775,7.63,0,1.85-1.006,3.8-2.774,3.991-.827-.022-.806-.613-.643-1.432L26.3,15.466A1.145,1.145,0,0,0,25.179,14.1H23.034a.645.645,0,0,0-.641.572v0a3.667,3.667,0,0,0-2.86-1.038c-3.557,0-6.573,2.968-6.573,7.223,0,3.114,1.754,5.049,4.578,5.049a4.825,4.825,0,0,0,3.576-1.828c.454,1.626,1.937,1.626,3.372,1.626,5.194,0,7.168-3.415,7.168-7.03C31.654,12.18,26.409,8,19.827,8ZM18.793,22.518a1.709,1.709,0,0,1-1.72-1.944c0-2.146,1.468-3.468,2.8-3.468,1.063,0,1.7.727,1.7,1.944A3.291,3.291,0,0,1,18.793,22.518Z" transform="translate(-8 -8)" fill="#d9241c"/>
</svg>
