<svg xmlns="http://www.w3.org/2000/svg" width="44.297" height="43.386" viewBox="0 0 44.297 43.386">
  <g id="facebook-2" opacity="0.5">
    <g id="Group_23" data-name="Group 23" transform="translate(21.301 31.805)">
      <g id="Group_22" data-name="Group 22">
        <path id="Path_125" data-name="Path 125" d="M246.847,375.333a.847.847,0,0,0-.847.847v.014a.847.847,0,0,0,1.695,0v-.014A.847.847,0,0,0,246.847,375.333Z" transform="translate(-246 -375.333)" fill="#fff"/>
      </g>
    </g>
    <g id="Group_25" data-name="Group 25">
      <g id="Group_24" data-name="Group 24">
        <path id="Path_126" data-name="Path 126" d="M35.819,0H8.479A8.4,8.4,0,0,0,0,8.3V35.081a8.4,8.4,0,0,0,8.479,8.3h13.67a.856.856,0,0,0,.865-.847V35.971a.865.865,0,0,0-1.73,0v5.72H8.479a6.688,6.688,0,0,1-6.748-6.61V8.3a6.688,6.688,0,0,1,6.748-6.61h27.34A6.688,6.688,0,0,1,42.567,8.3V35.081a6.688,6.688,0,0,1-6.748,6.61H30.281V26.735H35.3a.859.859,0,0,0,.861-.763l.622-6.055a.836.836,0,0,0-.219-.653.874.874,0,0,0-.642-.279H30.281V15.806c0-.575.187-.789.691-.789h4.909a.856.856,0,0,0,.865-.847v-5.9a.856.856,0,0,0-.865-.847H29.434c-3.653,0-5.59,1.572-6.572,2.89a8.784,8.784,0,0,0-1.578,5.155v3.56H17.044a.856.856,0,0,0-.865.847v6.017a.856.856,0,0,0,.865.847h4.239V29.15a.865.865,0,0,0,1.73,0V25.887a.856.856,0,0,0-.865-.847H17.909V20.718h4.239a.856.856,0,0,0,.865-.847V15.463c0-1.909.626-6.35,6.42-6.35h5.582v4.208H30.972a2.3,2.3,0,0,0-2.421,2.484v4.027a.856.856,0,0,0,.865.847h5.547l-.448,4.36h-5.1a.856.856,0,0,0-.865.847V42.538a.856.856,0,0,0,.865.847h6.4a8.4,8.4,0,0,0,8.479-8.3V8.3A8.4,8.4,0,0,0,35.819,0Z" fill="#fff"/>
      </g>
    </g>
    <g id="Group_27" data-name="Group 27" transform="translate(4.067 8.686)">
      <g id="Group_26" data-name="Group 26">
        <path id="Path_127" data-name="Path 127" d="M48.847,102.5a.847.847,0,0,0-.847.847v7.076a.847.847,0,0,0,1.695,0v-7.076A.847.847,0,0,0,48.847,102.5Z" transform="translate(-48 -102.5)" fill="#fff"/>
      </g>
    </g>
    <g id="Group_29" data-name="Group 29" transform="translate(4.067 19.437)">
      <g id="Group_28" data-name="Group 28">
        <path id="Path_128" data-name="Path 128" d="M48.847,229.382a.847.847,0,0,0-.847.847v.01a.847.847,0,1,0,1.695,0v-.01A.847.847,0,0,0,48.847,229.382Z" transform="translate(-48 -229.382)" fill="#fff"/>
      </g>
    </g>
  </g>
</svg>
