<svg xmlns="http://www.w3.org/2000/svg" width="22.119" height="22.118" viewBox="0 0 22.119 22.118">
  <path id="solid_phone-alt" data-name="solid phone-alt" d="M21.488,15.636l-4.839-2.074a1.037,1.037,0,0,0-1.21.3L13.3,16.479A16.013,16.013,0,0,1,5.642,8.824L8.26,6.681a1.034,1.034,0,0,0,.3-1.21L6.485.633A1.044,1.044,0,0,0,5.3.032L.8,1.069A1.037,1.037,0,0,0,0,2.08,20.043,20.043,0,0,0,20.045,22.125a1.037,1.037,0,0,0,1.011-.8l1.037-4.493a1.049,1.049,0,0,0-.605-1.192Z" transform="translate(0 -0.007)" fill="#d9241c"/>
</svg>
